<svg width="68" height="79" viewBox="0 0 68 79" fill="none" xmlns="http://www.w3.org/2000/svg">
<path d="M45.3666 24.4037C43.625 32.284 45.3666 42.1503 45.3666 42.1503H38.8299C38.1849 42.2571 39.9481 22.3536 38.8299 16.7157C37.8623 11.8679 34.2715 8.75 34.2715 8.75C34.2715 8.75 30.6591 11.8466 29.6915 16.6943C28.5734 22.3322 30.3366 42.2358 29.6915 42.129H23.1548C23.1548 42.129 24.8965 32.2626 23.1548 24.3824C21.4346 16.5235 15.5 15.0499 15.5 15.0499V50.778H29.6915C29.6915 50.778 30.6376 55.5404 34.25 59C37.8623 55.5404 38.8084 50.778 38.8084 50.778H52.9999V15.0499C53.0214 15.0499 47.1083 16.5235 45.3666 24.4037Z" stroke="#2699D6" stroke-width="3" stroke-miterlimit="10" stroke-linejoin="round"/>
<path d="M34.1701 77C34.1701 77 2 64.4342 2 34.6572V2H34.1701H66.3401V34.6572C66.3169 64.4574 34.1701 77 34.1701 77Z" stroke="#2699D6" stroke-width="3" stroke-miterlimit="10" stroke-linejoin="round"/>
</svg>
