<svg width="90" height="104" viewBox="0 0 90 104" fill="none" xmlns="http://www.w3.org/2000/svg">
<path d="M59.8222 31.8717C57.4999 42.3787 59.8222 55.5338 59.8222 55.5338H51.1066C50.2465 55.6762 52.5974 29.1381 51.1066 21.6209C49.8165 15.1572 45.0286 11 45.0286 11C45.0286 11 40.2121 15.1288 38.922 21.5924C37.4312 29.1096 39.7821 55.6477 38.922 55.5053H30.2064C30.2064 55.5053 32.5287 42.3502 30.2064 31.8432C27.9128 21.3646 20 19.3999 20 19.3999V67.0374H38.922C38.922 67.0374 40.1835 73.3872 45 78C49.8165 73.3872 51.0779 67.0374 51.0779 67.0374H69.9999V19.3999C70.0286 19.3999 62.1444 21.3646 59.8222 31.8717Z" stroke="white" stroke-width="4" stroke-miterlimit="10" stroke-linejoin="round"/>
<path d="M44.8934 102C44.8934 102 2 85.2456 2 45.5429V2H44.8934H87.7868V45.5429C87.7558 85.2766 44.8934 102 44.8934 102Z" stroke="white" stroke-width="4" stroke-miterlimit="10" stroke-linejoin="round"/>
</svg>
