<svg width="124" height="79" viewBox="0 0 124 79" fill="none" xmlns="http://www.w3.org/2000/svg">
<path d="M87.1255 2C78.2703 2 74.4944 8.32953 74.4944 8.32953C74.4944 8.32953 70.6961 2 61.8408 2C54.3341 2 48.041 8.32953 48.041 15.8797C48.041 33.2181 74.4719 47.0979 74.4719 47.0979C74.4719 47.0979 100.903 33.2181 100.903 15.8797C100.903 8.32953 94.6098 2 87.1255 2Z" stroke="#2699D6" stroke-width="3" stroke-miterlimit="10"/>
<path d="M54.6489 65.8152C82.8104 70.9241 91.4184 68.6635 90.9914 62.5827C90.6768 58.1068 83.17 56.7957 74.7418 56.7957C58.4697 56.7957 45.1868 47.7761 34.129 47.0075C23.0711 46.2389 2.77597 51.2347 2.77597 51.2347C2.77597 51.2347 -0.775127 61.5428 7.31597 71.444C7.31597 71.444 19.1155 67.8045 25.1389 68.6409C31.1398 69.4773 58.1775 76.1912 68.9432 76.9823C77.3264 77.5927 110.905 62.1984 116.793 59.5309C125.896 55.4167 120.996 47.8891 115.961 49.0646C109.916 50.4661 87.2156 58.4685 87.2156 58.4685" stroke="#2699D6" stroke-width="3" stroke-miterlimit="10"/>
</svg>
