<svg width="164" height="104" viewBox="0 0 164 104" fill="none" xmlns="http://www.w3.org/2000/svg">
<path d="M115.501 2C103.694 2 98.6594 10.4394 98.6594 10.4394C98.6594 10.4394 93.595 2 81.7879 2C71.779 2 63.3882 10.4394 63.3882 20.5063C63.3882 43.6242 98.6294 62.1305 98.6294 62.1305C98.6294 62.1305 133.871 43.6242 133.871 20.5063C133.871 10.4394 125.48 2 115.501 2Z" stroke="white" stroke-width="4" stroke-miterlimit="10"/>
<path d="M72.1985 87.087C109.747 93.8988 121.225 90.8847 120.655 82.7769C120.236 76.8091 110.227 75.0609 98.9891 75.0609C77.2929 75.0609 59.5824 63.0348 44.8386 62.01C30.0949 60.9852 3.03462 67.6463 3.03462 67.6463C3.03462 67.6463 -1.70017 81.3904 9.08796 94.592C9.08796 94.592 24.8207 89.7394 32.8518 90.8546C40.853 91.9698 76.9034 100.922 91.2576 101.976C102.435 102.79 147.206 82.2645 155.057 78.7079C167.194 73.2223 160.661 63.1855 153.949 64.7528C145.887 66.6215 115.621 77.2913 115.621 77.2913" stroke="white" stroke-width="4" stroke-miterlimit="10"/>
</svg>
