<svg width="92" height="79" viewBox="0 0 92 79" fill="none" xmlns="http://www.w3.org/2000/svg">
<path d="M17.2344 20.427V42.1282C17.2344 42.1282 26.0385 50.0229 46.114 50.0229C66.1895 50.0229 74.9936 42.1282 74.9936 42.1282V20.427" stroke="#2699D6" stroke-width="3" stroke-miterlimit="10" stroke-linecap="round" stroke-linejoin="round"/>
<path d="M46.2447 29.4258L2 15.6007L45.9269 2L89.8538 15.6007L46.2447 29.4258Z" stroke="#2699D6" stroke-width="3" stroke-miterlimit="10" stroke-linecap="round" stroke-linejoin="round"/>
<path d="M82.7324 17.8643V43.8496" stroke="#2699D6" stroke-width="3" stroke-miterlimit="10" stroke-linecap="round" stroke-linejoin="round"/>
<path d="M82.7315 55.3175C85.9628 55.3175 88.5822 52.6958 88.5822 49.4619C88.5822 46.228 85.9628 43.6063 82.7315 43.6063C79.5003 43.6063 76.8809 46.228 76.8809 49.4619C76.8809 52.6958 79.5003 55.3175 82.7315 55.3175Z" stroke="#2699D6" stroke-width="3" stroke-miterlimit="10" stroke-linecap="round" stroke-linejoin="round"/>
<path d="M86.3217 54.0642L87.7796 71.5561C88.004 74.4933 85.6861 77.0001 82.7327 77.0001C79.798 77.0001 77.4615 74.4933 77.6858 71.5561L79.1438 54.0642" stroke="#2699D6" stroke-width="3" stroke-miterlimit="10" stroke-linecap="round" stroke-linejoin="round"/>
</svg>
