<svg width="122" height="104" viewBox="0 0 122 104" fill="none" xmlns="http://www.w3.org/2000/svg">
<path d="M22.3123 26.5697V55.5046C22.3123 55.5046 34.0511 66.0309 60.8185 66.0309C87.5858 66.0309 99.3246 55.5046 99.3246 55.5046V26.5697" stroke="white" stroke-width="4" stroke-miterlimit="10" stroke-linecap="round" stroke-linejoin="round"/>
<path d="M60.9929 38.5677L2 20.1342L60.5692 2L119.138 20.1342L60.9929 38.5677Z" stroke="white" stroke-width="4" stroke-miterlimit="10" stroke-linecap="round" stroke-linejoin="round"/>
<path d="M109.643 23.1524V57.7995" stroke="white" stroke-width="4" stroke-miterlimit="10" stroke-linecap="round" stroke-linejoin="round"/>
<path d="M109.643 73.09C113.951 73.09 117.444 69.5945 117.444 65.2825C117.444 60.9706 113.951 57.4751 109.643 57.4751C105.334 57.4751 101.842 60.9706 101.842 65.2825C101.842 69.5945 105.334 73.09 109.643 73.09Z" stroke="white" stroke-width="4" stroke-miterlimit="10" stroke-linecap="round" stroke-linejoin="round"/>
<path d="M114.428 71.4188L116.372 94.7413C116.671 98.6575 113.581 102 109.643 102C105.73 102 102.614 98.6575 102.913 94.7413L104.857 71.4188" stroke="white" stroke-width="4" stroke-miterlimit="10" stroke-linecap="round" stroke-linejoin="round"/>
</svg>
