<svg width="75" height="75" viewBox="0 0 75 75" fill="none" xmlns="http://www.w3.org/2000/svg">
<mask id="path-1-inside-1_185_35" fill="white">
<path fill-rule="evenodd" clip-rule="evenodd" d="M31.765 56.4706H44.1179L44.1179 44.1178H56.4709V31.7649L44.1179 31.7649L44.1179 19.4117H31.765L31.765 31.7649L19.4121 31.7649V44.1178H31.765L31.765 56.4706Z"/>
</mask>
<path d="M44.1179 56.4706V59.4706H47.1179V56.4706H44.1179ZM31.765 56.4706H28.765V59.4706H31.765V56.4706ZM44.1179 44.1178V41.1178H41.1179V44.1178H44.1179ZM56.4709 44.1178V47.1178H59.4709V44.1178H56.4709ZM56.4709 31.7649H59.4709V28.7649H56.4709V31.7649ZM44.1179 31.7649H41.1179V34.7649H44.1179V31.7649ZM44.1179 19.4117L47.1179 19.4117V16.4117H44.1179V19.4117ZM31.765 19.4117V16.4117H28.765V19.4117L31.765 19.4117ZM31.765 31.7649V34.7649H34.765V31.7649H31.765ZM19.4121 31.7649L19.4121 28.7649H16.4121V31.7649H19.4121ZM19.4121 44.1178H16.4121V47.1178H19.4121V44.1178ZM31.765 44.1178H34.765V41.1178H31.765V44.1178ZM44.1179 53.4706H31.765V59.4706H44.1179V53.4706ZM41.1179 44.1178L41.1179 56.4706H47.1179L47.1179 44.1178H41.1179ZM56.4709 41.1178H44.1179V47.1178H56.4709V41.1178ZM53.4709 31.7649V44.1178H59.4709V31.7649H53.4709ZM44.1179 34.7649L56.4709 34.7649V28.7649L44.1179 28.7649V34.7649ZM41.1179 19.4117L41.1179 31.7649H47.1179L47.1179 19.4117L41.1179 19.4117ZM31.765 22.4117H44.1179V16.4117H31.765V22.4117ZM34.765 31.7649L34.765 19.4117L28.765 19.4117L28.765 31.7649H34.765ZM19.4121 34.7649L31.765 34.7649V28.7649L19.4121 28.7649L19.4121 34.7649ZM22.4121 44.1178V31.7649H16.4121V44.1178H22.4121ZM31.765 41.1178H19.4121V47.1178H31.765V41.1178ZM34.765 56.4706L34.765 44.1178H28.765L28.765 56.4706H34.765Z" fill="#2699D6" mask="url(#path-1-inside-1_185_35)"/>
<circle cx="37.5" cy="37.5" r="36" stroke="#2699D6" stroke-width="3"/>
</svg>
