<svg width="100" height="100" viewBox="0 0 100 100" fill="none" xmlns="http://www.w3.org/2000/svg">
<mask id="path-1-inside-1_148_217" fill="white">
<path fill-rule="evenodd" clip-rule="evenodd" d="M42.353 75.2941H58.8236V58.8235H75.2941V42.3529H58.8236V25.8824L42.353 25.8823L42.353 42.3529H25.8824L25.8824 58.8235H42.353L42.353 75.2941Z"/>
</mask>
<path d="M58.8236 75.2941V79.2941H62.8236V75.2941H58.8236ZM42.353 75.2941H38.353V79.2941H42.353V75.2941ZM58.8236 58.8235V54.8235H54.8236V58.8235H58.8236ZM75.2941 58.8235V62.8235H79.2941V58.8235H75.2941ZM75.2941 42.3529H79.2941V38.3529H75.2941V42.3529ZM58.8236 42.3529H54.8236V46.3529H58.8236V42.3529ZM58.8236 25.8824H62.8236V21.8824L58.8236 21.8824V25.8824ZM42.353 25.8823V21.8823L38.353 21.8823V25.8823L42.353 25.8823ZM42.353 42.3529V46.3529H46.353V42.3529H42.353ZM25.8824 42.3529V38.3529H21.8824L21.8824 42.3529H25.8824ZM25.8824 58.8235H21.8824L21.8824 62.8235H25.8824V58.8235ZM42.353 58.8235H46.353V54.8235H42.353V58.8235ZM58.8236 71.2941H42.353V79.2941H58.8236V71.2941ZM54.8236 58.8235V75.2941H62.8236V58.8235H54.8236ZM75.2941 54.8235H58.8236V62.8235H75.2941V54.8235ZM71.2941 42.3529V58.8235H79.2941V42.3529H71.2941ZM58.8236 46.3529H75.2941V38.3529H58.8236V46.3529ZM54.8236 25.8824V42.3529H62.8236V25.8824H54.8236ZM42.353 29.8823L58.8236 29.8824V21.8824L42.353 21.8823V29.8823ZM46.353 42.3529L46.353 25.8823L38.353 25.8823L38.353 42.3529H46.353ZM25.8824 46.3529H42.353V38.3529H25.8824V46.3529ZM29.8824 58.8235L29.8824 42.3529H21.8824L21.8824 58.8235H29.8824ZM42.353 54.8235H25.8824V62.8235H42.353V54.8235ZM46.353 75.2941L46.353 58.8235H38.353L38.353 75.2941H46.353Z" fill="white" mask="url(#path-1-inside-1_148_217)"/>
<circle cx="50" cy="50" r="48" stroke="white" stroke-width="4"/>
</svg>
