<svg width="68" height="71" viewBox="0 0 68 71" fill="none" xmlns="http://www.w3.org/2000/svg">
<path d="M63.6667 37C57.5 33.0833 43.8333 33.1666 37 34.1666C37.0833 33.75 37.1667 33.5833 37.1667 33.5L35.4167 32.9166L34.3333 32.5833C34.6667 23.6666 31.1667 8.99997 25.4167 3.58331C22.5 0.833306 16.6667 -2.65837e-05 12.9167 4.0833C10.8333 6.3333 10.8333 9.91664 11.1667 13C8.08333 12.8333 4.5 13.0833 2.41666 15.3333C-1.41667 19.3333 -0.16667 25.1666 2.66666 27.8333C5.33333 30.3333 9.83333 32.1666 14.8333 33.4166C10.1667 34 5.91666 35.25 3.41666 37.0833C0.58333 39.25 -0.916669 44.5 2.33333 48.8333C4.16666 51.25 8.75 51.5 11.5833 51.75C11.0833 54.5833 10.75 58.4166 12.5833 60.8333C15.8333 65.0833 22.5 64.0833 25 61.4999C27.6667 58.75 30.0833 54.1666 31.75 49.25C32.0833 55.9166 33.8333 63.7499 38.8333 70.9999L41.9167 68.9166C35.5 59.4166 35 48.75 35.75 41.5833C36.6667 49.1666 38.3333 58.0833 43.4167 61.3333C46.5833 63.3333 52.3333 64.3333 55.5 60.5833C58.8333 56.5833 58.1667 52.25 58.1667 52.25C58.1667 52.25 64.8333 51.5833 66.5 48.1666C69.1667 44 66.8333 39 63.6667 37Z" fill="#2699D6"/>
<path d="M52.75 3.33342C48.75 -0.416573 42.9167 0.750093 40.25 3.66676C34.4167 9.91676 31.9167 26.7501 33.5 35.1667C42 36.1667 58.6667 32.6667 64.5833 26.3334C67.25 23.4167 68.0833 17.5834 64.0833 13.8334C61.8333 11.7501 58.25 11.7501 55.1667 12.0834C55.25 9.08342 55 5.50009 52.75 3.33342Z" fill="#ED3EED"/>
</svg>
