<svg width="67" height="76" viewBox="0 0 67 76" fill="none" xmlns="http://www.w3.org/2000/svg">
<path d="M3.507 45.484V50.062C3.507 50.16 3.57 50.223 3.696 50.251C4.172 50.307 4.55 50.335 4.83 50.335C5.838 50.335 6.615 50.104 7.161 49.642C7.721 49.166 8.001 48.508 8.001 47.668C8.001 46.002 6.944 45.169 4.83 45.169C4.48 45.169 4.095 45.204 3.675 45.274C3.563 45.302 3.507 45.372 3.507 45.484ZM1.197 58C0.875 58 0.595 57.881 0.357 57.643C0.119 57.405 0 57.125 0 56.803V43.972C0 43.636 0.112 43.335 0.336 43.069C0.56 42.803 0.84 42.656 1.176 42.628C2.366 42.516 3.514 42.46 4.62 42.46C9.1 42.46 11.34 44.126 11.34 47.458C11.34 49.264 10.815 50.636 9.765 51.574C8.729 52.498 7.203 52.96 5.187 52.96C4.655 52.96 4.158 52.939 3.696 52.897C3.57 52.897 3.507 52.953 3.507 53.065V56.803C3.507 57.125 3.388 57.405 3.15 57.643C2.912 57.881 2.632 58 2.31 58H1.197Z" fill="#424241"/>
<path d="M16.9596 45.568V55.102C16.9596 55.228 17.0226 55.305 17.1486 55.333C17.4286 55.389 17.7646 55.417 18.1566 55.417C19.5706 55.417 20.6136 55.004 21.2856 54.178C21.9716 53.352 22.3146 52.001 22.3146 50.125C22.3146 48.445 21.9716 47.213 21.2856 46.429C20.5996 45.645 19.5566 45.253 18.1566 45.253C17.7646 45.253 17.4286 45.281 17.1486 45.337C17.0226 45.365 16.9596 45.442 16.9596 45.568ZM14.6496 58.042C14.3136 58.014 14.0336 57.874 13.8096 57.622C13.5856 57.356 13.4736 57.048 13.4736 56.698V43.972C13.4736 43.622 13.5856 43.321 13.8096 43.069C14.0336 42.803 14.3136 42.656 14.6496 42.628C15.7416 42.516 16.8196 42.46 17.8836 42.46C20.3896 42.46 22.3216 43.125 23.6796 44.455C25.0376 45.785 25.7166 47.675 25.7166 50.125C25.7166 52.785 25.0376 54.801 23.6796 56.173C22.3216 57.531 20.3896 58.21 17.8836 58.21C16.8196 58.21 15.7416 58.154 14.6496 58.042Z" fill="#424241"/>
<path d="M29.1697 58C28.8477 58 28.5677 57.881 28.3297 57.643C28.0917 57.405 27.9727 57.125 27.9727 56.803V43.867C27.9727 43.545 28.0917 43.265 28.3297 43.027C28.5677 42.789 28.8477 42.67 29.1697 42.67H36.3727C36.6947 42.67 36.9747 42.789 37.2127 43.027C37.4507 43.265 37.5697 43.545 37.5697 43.867V44.35C37.5697 44.672 37.4507 44.952 37.2127 45.19C36.9747 45.428 36.6947 45.547 36.3727 45.547H31.7317C31.6057 45.547 31.5427 45.603 31.5427 45.715V48.844C31.5427 48.97 31.6057 49.033 31.7317 49.033H35.9527C36.2747 49.033 36.5547 49.152 36.7927 49.39C37.0307 49.614 37.1497 49.887 37.1497 50.209V50.545C37.1497 50.867 37.0307 51.147 36.7927 51.385C36.5547 51.609 36.2747 51.721 35.9527 51.721H31.7317C31.6057 51.721 31.5427 51.784 31.5427 51.91V56.803C31.5427 57.125 31.4237 57.405 31.1857 57.643C30.9617 57.881 30.6887 58 30.3667 58H29.1697Z" fill="#424241"/>
<path d="M65.3787 63.8748V71.0604C65.3787 73.2351 63.9523 75 62.1948 75H26.9043" stroke="#2699D6" stroke-width="2" stroke-miterlimit="10" stroke-linecap="round"/>
<path d="M17.4043 30.6V4.93952C17.4043 2.76491 18.8307 1 20.5882 1H46.989L65.3791 23.3765V53.9472" stroke="#2699D6" stroke-width="2" stroke-miterlimit="10" stroke-linecap="round"/>
<path d="M46.9883 1V19.437C46.9883 21.6116 48.4147 23.3765 50.1722 23.3765H65.3784" stroke="#2699D6" stroke-width="2" stroke-miterlimit="10" stroke-linecap="round"/>
</svg>
