<?xml version="1.0" standalone="no"?>
<!DOCTYPE svg PUBLIC "-//W3C//DTD SVG 20010904//EN"
 "http://www.w3.org/TR/2001/REC-SVG-20010904/DTD/svg10.dtd">
<svg version="1.0" xmlns="http://www.w3.org/2000/svg"
 width="568.000000pt" height="568.000000pt" viewBox="0 0 568.000000 568.000000"
 preserveAspectRatio="xMidYMid meet">
<metadata>
Created by potrace 1.14, written by Peter Selinger 2001-2017
</metadata>
<g transform="translate(0.000000,568.000000) scale(0.100000,-0.100000)"
fill="#000000" stroke="none">
<path d="M3828 5605 c-2 -2 -28 -6 -58 -9 -81 -9 -217 -50 -231 -69 -3 -5 -10
-8 -14 -6 -14 4 -133 -81 -176 -126 -68 -71 -157 -201 -212 -310 -28 -55 -52
-102 -52 -105 -1 -3 -10 -23 -20 -45 -42 -95 -128 -349 -139 -411 -3 -13 -7
-27 -10 -32 -3 -5 -7 -19 -10 -33 -3 -13 -13 -55 -22 -94 -8 -38 -17 -81 -20
-95 -2 -14 -7 -36 -11 -50 -7 -29 -9 -40 -19 -100 -4 -25 -9 -52 -10 -60 -2
-8 -5 -31 -8 -50 -15 -124 -18 -123 -47 15 -66 304 -155 591 -251 805 -11 25
-41 86 -65 135 -25 50 -51 100 -57 112 -6 13 -14 23 -18 23 -5 0 -8 4 -8 10 0
44 -265 350 -304 350 -9 0 -16 4 -16 9 0 13 -160 78 -241 97 -48 11 -223 11
-278 -1 -153 -33 -267 -96 -373 -210 -46 -48 -111 -164 -122 -215 -3 -14 -11
-45 -17 -70 -8 -27 -13 -121 -13 -236 l0 -192 -104 2 c-57 0 -105 -1 -107 -3
-2 -2 -26 -5 -52 -7 -141 -9 -322 -78 -398 -151 -53 -50 -115 -127 -115 -142
0 -6 -4 -11 -9 -11 -14 0 -69 -141 -86 -220 -37 -177 12 -412 119 -564 89
-128 309 -278 556 -378 140 -57 361 -130 433 -143 20 -4 40 -11 43 -16 3 -5 2
-8 -3 -7 -4 1 -30 -2 -58 -7 -27 -4 -59 -9 -70 -10 -32 -4 -88 -15 -95 -20 -3
-2 -29 -7 -56 -11 -27 -3 -52 -8 -57 -11 -4 -2 -20 -7 -35 -9 -69 -12 -306
-100 -397 -147 -207 -108 -325 -279 -351 -512 -7 -60 -7 -53 0 -140 14 -166
113 -360 221 -435 116 -80 319 -137 512 -143 24 -1 43 -4 43 -7 0 -3 17 -5 38
-5 44 1 73 -5 68 -14 -13 -20 -29 -198 -29 -306 0 -202 42 -337 138 -443 123
-137 299 -205 504 -197 104 5 116 6 200 31 98 28 200 83 256 139 12 12 133
155 143 170 55 80 76 113 119 185 62 106 150 286 198 405 20 50 40 99 44 110
5 11 15 36 22 55 19 54 24 53 24 -3 0 -29 3 -77 7 -107 4 -30 10 -82 14 -115
3 -33 8 -69 11 -80 2 -11 6 -33 8 -50 4 -40 13 -85 31 -170 22 -101 23 -105
29 -125 3 -10 8 -29 10 -42 8 -38 55 -192 65 -210 6 -10 10 -23 10 -29 0 -41
177 -432 243 -537 15 -23 27 -44 27 -46 0 -3 11 -22 25 -43 14 -21 31 -46 38
-57 6 -10 20 -29 30 -42 l18 -23 42 30 c23 16 77 52 119 80 78 52 83 61 53 99
-25 32 -104 170 -157 275 -48 97 -143 321 -154 364 -2 9 -19 66 -38 126 -44
144 -98 401 -111 535 -3 30 -7 70 -10 89 -6 46 -17 261 -17 341 0 65 11 316
16 357 3 33 11 36 14 5 2 -33 8 -75 32 -242 15 -105 18 -125 20 -125 1 0 4
-13 6 -30 3 -16 12 -61 20 -100 8 -38 17 -81 20 -95 31 -151 131 -456 161
-491 7 -8 13 -21 13 -27 0 -15 52 -109 103 -187 22 -33 77 -96 121 -140 115
-112 250 -179 451 -220 82 -17 276 -11 345 10 67 21 160 65 160 77 0 4 3 7 8
6 8 -3 41 23 85 67 88 89 188 271 212 389 3 16 8 33 11 37 9 14 18 105 18 186
l1 81 100 20 c125 25 137 28 199 48 132 44 257 118 323 193 34 39 101 178 119
246 25 97 19 226 -17 338 -66 206 -214 361 -438 456 -70 30 -251 89 -299 97
-15 3 -45 10 -67 15 -45 11 -51 12 -195 34 -110 17 -161 22 -270 30 -36 2 -67
5 -70 6 -3 0 -17 0 -32 -1 -16 -1 -28 1 -28 4 0 7 40 24 73 30 61 12 338 104
457 153 115 47 274 124 345 166 175 106 330 243 384 339 17 29 31 58 31 63 1
6 6 15 10 20 9 11 39 93 46 129 24 114 24 254 -1 351 -32 126 -101 245 -194
331 -44 41 -137 103 -163 108 -7 1 -33 9 -58 16 -52 15 -57 17 -125 26 -56 9
-268 9 -331 1 l-42 -5 2 62 c6 177 -29 366 -91 493 -83 173 -280 304 -493 328
-94 11 -119 13 -122 10z"/>
</g>
</svg>
